<svg version="1.1" id="Layer_1" xmlns="http://www.w3.org/2000/svg" xmlns:xlink="http://www.w3.org/1999/xlink" x="0px" y="0px"
	 width="100%" viewBox="0 0 512 512" enable-background="new 0 0 512 512" xml:space="preserve">
<path fill="#0A0A0A" opacity="1.000000" stroke="none" 
	d="
M279.000000,513.000000 
	C186.022568,513.000000 93.545135,513.000000 1.033850,513.000000 
	C1.033850,342.397552 1.033850,171.795074 1.033850,1.096304 
	C171.560776,1.096304 342.121643,1.096304 512.841248,1.096304 
	C512.841248,171.666550 512.841248,342.333252 512.841248,513.000000 
	C435.128387,513.000000 357.314178,513.000000 279.000000,513.000000 
M276.182983,271.824982 
	C276.818359,271.627991 277.441742,271.369690 278.090851,271.242737 
	C327.609283,261.557922 363.862061,220.372742 367.234741,169.957199 
	C371.902679,100.180244 310.770264,43.387363 241.630478,53.269054 
	C196.599823,59.704994 160.289368,92.708145 149.449875,137.053482 
	C138.760635,180.784073 156.238159,226.864777 193.376923,253.169006 
	C207.063004,262.862396 222.286148,268.730164 238.669128,272.826904 
	C244.550018,333.577789 250.430893,394.328674 256.311798,455.079529 
	C256.775146,455.086365 257.238495,455.093170 257.701874,455.100006 
	C263.588562,394.078247 269.475281,333.056519 276.182983,271.824982 
z"/>
<path fill="#7BAFD4" opacity="1.000000" stroke="none" 
	d="
M238.611420,272.021606 
	C222.286148,268.730164 207.063004,262.862396 193.376923,253.169006 
	C156.238159,226.864777 138.760635,180.784073 149.449875,137.053482 
	C160.289368,92.708145 196.599823,59.704994 241.630478,53.269054 
	C310.770264,43.387363 371.902679,100.180244 367.234741,169.957199 
	C363.862061,220.372742 327.609283,261.557922 278.090851,271.242737 
	C277.441742,271.369690 276.818359,271.627991 275.372253,271.921082 
	C262.578125,272.018646 250.594772,272.020111 238.611420,272.021606 
M173.320816,132.946518 
	C172.830887,145.016037 173.593933,150.313965 176.554642,154.516037 
	C176.994934,134.921173 184.145767,118.325592 197.819458,104.656685 
	C211.456589,91.024338 228.277359,84.559746 247.422775,83.423340 
	C237.329025,80.096710 227.048141,79.595490 217.015671,82.382607 
	C191.813065,89.384125 177.380875,106.214195 173.320816,132.946518 
z"/>
<path fill="#EDEDED" opacity="1.000000" stroke="none" 
	d="
M238.640274,272.424255 
	C250.594772,272.020111 262.578125,272.018646 274.961731,272.025970 
	C269.475281,333.056519 263.588562,394.078247 257.701874,455.100006 
	C257.238495,455.093170 256.775146,455.086365 256.311798,455.079529 
	C250.430893,394.328674 244.550018,333.577789 238.640274,272.424255 
z"/>
<path fill="#EDEDED" opacity="1.000000" stroke="none" 
	d="
M173.376389,132.500549 
	C177.380875,106.214195 191.813065,89.384125 217.015671,82.382607 
	C227.048141,79.595490 237.329025,80.096710 247.422775,83.423340 
	C228.277359,84.559746 211.456589,91.024338 197.819458,104.656685 
	C184.145767,118.325592 176.994934,134.921173 176.554642,154.516037 
	C173.593933,150.313965 172.830887,145.016037 173.376389,132.500549 
z"/>
</svg>